HIERARCHY
ROOT Hips
{
	OFFSET 0.000000 0.000000 0.000000
	CHANNELS 6 Xposition Yposition Zposition Xrotation Yrotation Zrotation
	JOINT LeftUpLeg_virtual
	{
		OFFSET 0.000000 0.000000 0.000000
		CHANNELS 3 Xrotation Yrotation Zrotation
		JOINT LeftUpLeg
		{
			OFFSET 10.205400 -3.823500 0.155100
			CHANNELS 3 Xrotation Yrotation Zrotation
			JOINT LeftLeg
			{
				OFFSET 0.708757 -12.982077 0.567790
				CHANNELS 3 Xrotation Yrotation Zrotation
				JOINT LeftFoot
				{
					OFFSET -0.708756 -10.717838 -2.184338
					CHANNELS 3 Xrotation Yrotation Zrotation
					JOINT LeftToeBase
					{
						OFFSET 0.108149 -7.191104 7.560241
						CHANNELS 3 Xrotation Yrotation Zrotation
						JOINT LeftToe_End
						{
							OFFSET 0.070230 0.081724 4.490308
							CHANNELS 3 Xrotation Yrotation Zrotation
							End Site
							{
								OFFSET 0 0 0
							}
						}
					}
				}
			}
		}
	}
	JOINT RightUpLeg_virtual
	{
		OFFSET 0.000000 0.000000 0.000000
		CHANNELS 3 Xrotation Yrotation Zrotation
		JOINT RightUpLeg
		{
			OFFSET -10.205400 -3.823500 0.005500
			CHANNELS 3 Xrotation Yrotation Zrotation
			JOINT RightLeg
			{
				OFFSET -0.708756 -12.982134 0.610632
				CHANNELS 3 Xrotation Yrotation Zrotation
				JOINT RightFoot
				{
					OFFSET 0.708754 -10.717769 -1.945823
					CHANNELS 3 Xrotation Yrotation Zrotation
					JOINT RightToeBase
					{
						OFFSET -0.108140 -7.191069 7.372968
						CHANNELS 3 Xrotation Yrotation Zrotation
						JOINT RightToe_End
						{
							OFFSET -0.070227 0.081735 4.479403
							CHANNELS 3 Xrotation Yrotation Zrotation
							End Site
							{
								OFFSET 0 0 0
							}
						}
					}
				}
			}
		}
	}
	JOINT Spine_virtual
	{
		OFFSET 0.000000 0.000000 0.000000
		CHANNELS 3 Xrotation Yrotation Zrotation
		JOINT Spine
		{
			OFFSET 0.000000 6.876099 0.125700
			CHANNELS 3 Xrotation Yrotation Zrotation
			JOINT Spine1
			{
				OFFSET 0.000000 5.730043 0.104720
				CHANNELS 3 Xrotation Yrotation Zrotation
				JOINT Spine1_split
				{
					OFFSET 0.000000 5.730043 0.104720
					CHANNELS 3 Xrotation Yrotation Zrotation
					JOINT Spine2
					{
						OFFSET 0.000000 5.730043 0.104720
						CHANNELS 3 Xrotation Yrotation Zrotation
						JOINT Neck_virtual
						{
							OFFSET 0.000000 0.000000 0.000000
							CHANNELS 3 Xrotation Yrotation Zrotation
							JOINT Neck
							{
								OFFSET 0.000000 10.314075 0.188496
								CHANNELS 3 Xrotation Yrotation Zrotation
								JOINT Head
								{
									OFFSET 0.000000 7.643700 -2.377400
									CHANNELS 3 Xrotation Yrotation Zrotation
									JOINT HeadTop_End
									{
										OFFSET 0.000000 43.788605 -13.619600
										CHANNELS 3 Xrotation Yrotation Zrotation
										End Site
										{
											OFFSET 0 0 0
										}
									}
								}
							}
						}
						JOINT LeftShoulder_virtual
						{
							OFFSET 0.000000 0.000000 0.000000
							CHANNELS 3 Xrotation Yrotation Zrotation
							JOINT LeftShoulder
							{
								OFFSET 2.196100 4.412489 0.087492
								CHANNELS 3 Xrotation Yrotation Zrotation
								JOINT LeftShoulder_split
								{
									OFFSET 2.196100 4.412489 0.087492
									CHANNELS 3 Xrotation Yrotation Zrotation
									JOINT LeftArm
									{
										OFFSET 8.771219 -2.981674 -0.026999
										CHANNELS 3 Xrotation Yrotation Zrotation
										JOINT LeftForeArm
										{
											OFFSET 8.512804 0.000000 -0.000000
											CHANNELS 3 Xrotation Yrotation Zrotation
											JOINT LeftHand
											{
												OFFSET 18.484802 0.000000 -0.000000
												CHANNELS 3 Xrotation Yrotation Zrotation
												End Site
												{
													OFFSET 0 0 0
												}
											}
										}
									}
								}
							}
						}
						JOINT RightShoulder_virtual
						{
							OFFSET 0.000000 0.000000 0.000000
							CHANNELS 3 Xrotation Yrotation Zrotation
							JOINT RightShoulder
							{
								OFFSET -2.196100 4.412496 0.070690
								CHANNELS 3 Xrotation Yrotation Zrotation
								JOINT RightShoulder_split
								{
									OFFSET -2.196100 4.412496 0.070690
									CHANNELS 3 Xrotation Yrotation Zrotation
									JOINT RightArm
									{
										OFFSET -8.771282 -2.981682 -0.094208
										CHANNELS 3 Xrotation Yrotation Zrotation
										JOINT RightForeArm
										{
											OFFSET -8.494598 0.000000 0.000000
											CHANNELS 3 Xrotation Yrotation Zrotation
											JOINT RightHand
											{
												OFFSET -18.483803 0.000000 0.000001
												CHANNELS 3 Xrotation Yrotation Zrotation
												End Site
												{
													OFFSET 0 0 0
												}
											}
										}
									}
								}
							}
						}
					}
				}
			}
		}
	}
}
MOTION
Frames: 4
Frame Time: 0.03333333
1.323119 63.919426 -8.443649 0.000000 0.000000 0.000000 3.349359 -7.201705 1.379990 -95.966330 9.931172 23.297319 101.493100 2.647793 8.004107 1.812189 2.247343 -33.410625 -1.098747 -2.780408 20.916785 0.000000 0.000000 0.000000 6.720161 -14.735214 1.308144 -103.411455 21.426249 -9.657315 112.662256 -10.459118 -2.732484 17.709905 -10.949894 33.239239 3.671366 15.871167 15.175439 0.000000 0.000000 0.000000 9.876031 -15.007847 0.953796 5.118774 -2.215433 -0.345792 10.603640 -1.008222 -0.648517 1.397529 -3.357144 2.995612 0.000000 0.000000 0.000000 13.380333 -1.094653 -0.518351 -22.857723 0.880062 -2.275452 -0.092489 -4.406673 1.369323 0.000000 0.000000 0.000000 13.156438 -1.093161 -0.825026 0.905138 -13.545031 27.139139 0.229248 7.941081 -8.065262 -59.836323 -22.383645 -12.675815 30.465915 -70.479909 54.971483 0.000000 0.000000 0.000000 12.454633 -0.801956 -0.456041 3.020442 9.327953 -6.745416 7.546669 10.905241 1.031310 -75.995786 35.721319 23.327558 -12.646001 75.912321 -27.455941 0.000000 0.000000 0.000000 
1.542119 63.939148 -9.318502 0.000000 0.000000 0.000000 2.622096 -9.428375 1.599679 -98.699293 5.881093 20.217864 99.741840 0.158331 4.733278 2.470752 5.934666 -33.690116 1.631985 -3.673542 20.431789 0.000000 0.000000 0.000000 5.694067 -15.124662 1.811726 -104.601793 15.652468 -10.939522 106.874654 -5.702874 -4.783838 19.399849 -7.838064 37.468140 -0.546977 12.155489 9.681442 0.000000 0.000000 0.000000 9.749153 -16.084612 0.766233 5.618720 -2.071619 -0.173208 13.849466 -0.683109 -0.690919 2.030314 -2.928271 3.278107 0.000000 0.000000 0.000000 16.302015 -0.572835 -0.719891 -24.430217 1.936574 -1.901581 2.591955 -5.302165 3.462041 0.000000 0.000000 0.000000 16.241051 -0.653585 -1.153148 2.484160 -16.325685 29.839891 -0.395350 4.763110 -7.370658 -59.772119 -18.335593 -10.164124 16.851916 -65.707854 46.754257 0.000000 0.000000 0.000000 15.548569 -0.205357 -0.651521 3.675826 10.274090 -8.568521 9.185253 11.176694 -0.086121 -84.376332 36.639382 26.801476 -31.605901 76.751901 -10.202936 0.000000 0.000000 0.000000 
1.641644 64.194221 -10.010853 0.000000 0.000000 0.000000 2.461873 -10.816224 2.164714 -97.888072 3.247685 15.700218 91.103775 -1.886542 2.127528 1.407606 9.950330 -29.126700 4.334218 -4.232494 17.493706 0.000000 0.000000 0.000000 5.342005 -14.384356 2.593088 -103.160240 8.347534 -12.288157 97.059071 -1.192115 -6.134787 19.572179 -3.986294 37.313272 -3.572588 10.908316 4.661377 0.000000 0.000000 0.000000 9.502966 -16.610993 0.730647 5.516185 -1.552962 0.020463 16.879059 -0.239826 -0.814999 2.379719 -3.120183 3.183291 0.000000 0.000000 0.000000 19.016345 0.087378 -0.972551 -24.828293 2.982940 -1.813193 6.221671 -6.369852 5.689551 0.000000 0.000000 0.000000 19.150262 -0.194898 -1.425430 3.849758 -18.198764 31.626706 -1.591355 1.384055 -5.749022 -63.290070 -15.940167 -8.631129 7.253091 -59.805314 42.188555 0.000000 0.000000 0.000000 18.288682 0.468189 -0.788520 4.701973 12.025376 -10.850275 10.477730 11.393911 -1.028083 -90.404999 38.627810 27.353391 -39.810034 71.958399 -3.264078 0.000000 0.000000 0.000000 
1.602630 64.589096 -10.486788 0.000000 0.000000 0.000000 2.251797 -10.605568 2.848022 -94.852729 1.616318 10.687792 77.433786 -4.288612 0.293754 -0.039848 12.568794 -22.063340 6.088873 -4.672598 12.650327 0.000000 0.000000 0.000000 4.554359 -14.142947 3.285198 -100.018066 0.136842 -13.481045 82.994086 1.901340 -5.483656 19.471831 -1.466771 31.837370 -4.888858 11.652498 1.816023 0.000000 0.000000 0.000000 8.893686 -16.760652 0.870784 5.127994 -0.927706 0.212813 19.412180 0.202953 -0.959725 1.750749 -2.583803 2.373833 0.000000 0.000000 0.000000 21.190682 0.738214 -1.210748 -23.968751 4.113986 -2.134831 10.207381 -7.404787 7.671234 0.000000 0.000000 0.000000 21.590641 0.230756 -1.608659 4.765175 -18.858931 32.671588 -2.541444 -1.624968 -3.673360 -68.639207 -15.520570 -7.170054 -1.084837 -52.685938 38.423704 0.000000 0.000000 0.000000 20.408493 1.023163 -0.814453 6.238120 14.001439 -14.005935 10.867659 10.831490 -1.503320 -91.776774 41.330807 23.798797 -39.462839 63.502441 -4.537806 0.000000 0.000000 0.000000 
